<?xml version="1.0" standalone="no"?>
<!DOCTYPE svg PUBLIC "-//W3C//DTD SVG 20010904//EN"
 "http://www.w3.org/TR/2001/REC-SVG-20010904/DTD/svg10.dtd">
<svg version="1.0" xmlns="http://www.w3.org/2000/svg"
 width="200.000000pt" height="200.000000pt" viewBox="0 0 200.000000 200.000000"
 preserveAspectRatio="xMidYMid meet">

<g transform="translate(0.000000,200.000000) scale(0.100000,-0.100000)"
fill="#6e6e6e" stroke="none">
<path d="M679 1900 c-422 -67 -686 -497 -549 -895 49 -143 150 -273 276 -355
227 -148 534 -145 756 8 l43 30 230 -279 c274 -332 292 -346 391 -298 31 15
48 32 63 63 48 99 34 117 -298 391 l-279 229 30 43 c152 221 156 517 12 750
-138 222 -421 353 -675 313z m290 -85 c187 -60 333 -205 402 -402 29 -83 36
-237 15 -328 -54 -229 -240 -416 -466 -469 -313 -74 -636 109 -736 417 -34
103 -38 257 -10 352 28 94 85 194 153 265 167 177 408 238 642 165z m401
-1145 c36 -30 67 -56 69 -57 3 -2 -7 -16 -22 -30 -14 -15 -28 -25 -30 -22 -2
2 -33 40 -70 85 -50 61 -63 84 -55 92 9 9 16 9 27 -1 9 -7 45 -37 81 -67z"/>
<path d="M409 1676 c-100 -78 -175 -204 -203 -338 -26 -126 -21 -178 19 -178
21 0 22 5 28 83 11 151 58 251 168 359 44 42 79 84 79 91 0 12 -19 27 -33 27
-1 0 -27 -20 -58 -44z"/>
</g>
</svg>
